<?xml version="1.0" encoding="UTF-8"?>
<svg width="188px" height="175px" viewBox="0 0 188 175" version="1.1" xmlns="http://www.w3.org/2000/svg" xmlns:xlink="http://www.w3.org/1999/xlink">
    <title>guinsoodb</title>
    <defs>
        <radialGradient cx="50%" cy="0%" fx="50%" fy="0%" r="97.8585726%" id="radialGradient-1">
            <stop stop-color="#FFFFFF" stop-opacity="0.5" offset="0%"></stop>
            <stop stop-color="#000000" stop-opacity="0.5" offset="100%"></stop>
        </radialGradient>
        <path d="M173.525965,43.7695313 L154.572866,6.25 C152.624576,2.3828125 149.018531,0 145.104861,0 L107.198662,0 C103.302083,0 99.6789472,2.3828125 97.7306575,6.25 L87.7841256,26.09375 L77.2736151,6.25 C75.3253253,2.3828125 71.70219,0 67.8056105,0 L29.8823213,0 C25.9857418,0 22.3626065,2.3828125 20.4143168,6.25 L1.46121731,43.7695313 C-0.487072438,47.6367188 -0.487072438,52.4023438 1.46121731,56.25 L20.4143168,93.75 C22.3626065,97.6171875 25.9686516,99.9804687 29.8823213,99.9804687 L50.5957177,99.9804687 L41.1277131,118.769531 C39.1794233,122.636719 39.1794233,127.402344 41.1277131,131.25 L60.0808125,168.75 C62.0461925,172.65625 65.6522376,175 69.5488171,175 L107.472106,175 C111.368686,175 114.991821,172.65625 116.940111,168.789063 L135.89321,131.269531 C137.8415,127.402344 137.8415,122.65625 135.89321,118.789062 L126.408115,100 L145.121951,100 C149.018531,100 152.641666,97.6367188 154.589956,93.7695312 L173.525965,56.25 C175.491345,52.4023438 175.491345,47.6367188 173.525965,43.7695313 Z M87.6697444,51 L100.647668,75 L75.2590674,75 L87.6697444,51 L87.6697444,51 Z M29.8584375,88 L10.880829,50.5 L29.8584375,13 L67.8649916,13 L81.6062176,38.9765625 L56.8959681,88 L29.8584375,88 Z M126.943005,125.5 L107.901554,163 L69.8186528,163 L50.7772021,125.5 L69.8186528,88 L107.901554,88 L126.943005,125.5 L126.943005,125.5 Z M145.174007,88 L120.38642,88 L94.3005181,38.7226562 L107.283678,13 L145.174007,13 L164.119171,50.5 L145.174007,88 L145.174007,88 Z" id="path-2"></path>
    </defs>
    <g id="guinsoodb" stroke="none" stroke-width="1" fill="none" fill-rule="evenodd">
        <g id="Group" fill-rule="nonzero">
            <g id="Shape">
                <use fill="#007AFE" xlink:href="#path-2"></use>
                <use fill="url(#radialGradient-1)" xlink:href="#path-2"></use>
            </g>
        </g>
        <g id="Group" transform="translate(162.000000, 146.000000)" fill-rule="nonzero">
            <path d="M2.06938776,15 C0.742857143,15.5096512 0,16.1212327 0,16.7328141 C0.0514739947,17.2115622 0.350731611,17.6331348 0.795918367,17.8540468 L1.27346939,18.1598375 L1.85714286,18.4146631 L2.97142857,18.8223841 L3.34285714,18.9243143 C6.49851868,19.6894056 9.74585502,20.0492966 13,19.9945818 C16.254145,20.0492966 19.5014813,19.6894056 22.6571429,18.9243143 L23.0285714,18.8223841 L24.1428571,18.4146631 L24.7265306,18.1598375 L25.2040816,17.8540468 C25.6492684,17.6331348 25.948526,17.2115622 26,16.7328141 C26,16.1212327 25.2571429,15.5096512 23.9306122,15 C21.5959184,15.8664071 17.5632653,16.4779885 13,16.4779885 C8.43673469,16.4779885 4.40408163,15.8664071 2.06938776,15 Z" id="Path" fill="#C3D2FB"></path>
            <path d="M24.7265306,17.5423729 L24.1428571,17.8177966 L23.0285714,18.2584746 L22.6571429,18.3686441 C19.5014813,19.1955794 16.254145,19.5845612 13,19.5254237 C9.74585502,19.5845612 6.49851868,19.1955794 3.34285714,18.3686441 L2.97142857,18.2584746 L1.85714286,17.8177966 L1.27346939,17.5423729 L0.795918367,17.2118644 C0.350731611,16.9730957 0.0514739947,16.5174464 0,16 L0,25.529661 C0,27.4576271 5.83673469,29 13,29 C20.1632653,29 26,27.4576271 26,25.529661 L26,16 C25.948526,16.5174464 25.6492684,16.9730957 25.2040816,17.2118644 L24.7265306,17.5423729 Z" id="Path" fill="#2864A6"></path>
            <path d="M0.795918367,4.71856701 L1.27346939,5.05164232 L1.85714286,5.32920509 L2.97142857,5.71779296 L3.82040816,5.99535573 C6.8326416,6.70125786 9.91338397,7.03660586 13,6.99458168 C14.0800126,7.01494789 15.1603168,6.97789175 16.2367347,6.88355657 L17.4571429,6.88355657 C18.8897959,6.71701891 20.1632653,6.4949687 21.277551,6.27291849 L22.1795918,6.05086828 L23.0285714,5.77330551 L24.1428571,5.38471764 L24.7265306,5.10715488 L25.2040816,4.77407956 C25.6492684,4.53345648 25.948526,4.07426844 26,3.55280339 C26,1.55435148 20.1632653,0 13,0 C5.83673469,0 0,1.55435148 0,3.49729084 C0.0514739947,4.01875589 0.350731611,4.47794392 0.795918367,4.71856701 L0.795918367,4.71856701 Z" id="Path" fill="#3D4265"></path>
            <path d="M26,12.529661 L26,3 C25.948526,3.51744638 25.6492684,3.97309569 25.2040816,4.21186441 L24.7265306,4.54237288 L24.1428571,4.81779661 L23.0285714,5.20338983 L22.1795918,5.47881356 L21.277551,5.69915254 C20.1632653,5.91949153 18.8897959,6.13983051 17.4571429,6.30508475 L16.2367347,6.30508475 C15.1603168,6.39869293 14.0800126,6.43546349 13,6.41525424 C9.91338397,6.45695456 6.8326416,6.12419092 3.82040816,5.42372881 L2.97142857,5.14830508 L1.85714286,4.81779661 L1.27346939,4.54237288 L0.795918367,4.21186441 C0.350731611,3.97309569 0.0514739947,3.51744638 0,3 L0,12.529661 C0,13.190678 0.742857143,13.8516949 2.06938776,14.4025424 C4.40408163,15.3389831 8.43673469,16 13,16 C17.5632653,16 21.5959184,15.3389831 23.9306122,14.4025424 C25.2571429,13.8516949 26,13.190678 26,12.529661 L26,12.529661 Z" id="Path" fill="#5D99DB"></path>
        </g>
    </g>
</svg>